<svg width="47" height="43" viewBox="0 0 47 43" fill="none" xmlns="http://www.w3.org/2000/svg">
<g clip-path="url(#clip0_2_444)">
<path d="M20.8683 0C18.6685 0 16.879 1.69531 16.879 3.7793V5.12305L19.5385 6.38281H20.8683H22.198L24.8575 5.12305V3.7793C24.8575 1.69531 23.068 0 20.8683 0Z" fill="#FF6A4D"/>
<path d="M24.8575 5.12305V3.7793C24.8575 1.69531 23.068 0 20.8683 0V6.38281H22.198L24.8575 5.12305Z" fill="#E64D2E"/>
<path d="M0.833313 37.9609C1.44952 40.8359 4.26549 43 7.48208 43C10.6987 43 13.6033 40.8359 14.2195 37.9609L11.3306 36.7012H2.67936L0.833313 37.9609Z" fill="#474F54"/>
<path d="M7.48208 40.4805C5.28231 40.4805 3.49282 38.7852 3.49282 36.7012C3.49282 34.6172 5.28231 32.9219 7.48208 32.9219C9.68184 32.9219 11.56 34.6172 11.56 36.7012C11.56 38.7852 9.68184 40.4805 7.48208 40.4805Z" fill="#F2F9FF"/>
<path d="M14.2195 15.2852H6.15232L3.49282 17.8047V25.3633L6.15232 26.623H14.2195L18.2087 25.3633V18.5605L16.879 17.8047L14.2195 15.2852Z" fill="#DC780B"/>
<path d="M3.49282 12.7656V17.8047H16.879L18.2087 17.1525L16.879 16.5449V12.7656H3.49282Z" fill="#FABE2C"/>
<path d="M22.198 37.9609H0.833313V36.7012C0.833313 31.8309 5.08941 27.8828 10.2302 27.8828L12.4465 26.623H24.8575V35.8613L22.198 37.9609Z" fill="#FF6A4D"/>
<path d="M0.833313 25.3633H19.5385V27.8828H0.833313V25.3633Z" fill="#32393F"/>
<path d="M28.8468 31.7376V36.4743L27.517 37.9609H22.198V27.8828H19.5385C18.0758 27.8828 16.879 26.749 16.879 25.3633V19.0645H24.8575V22.8438C26.3202 22.8438 27.517 23.9775 27.517 25.3633V30.4023L28.8468 31.7376Z" fill="#575F64"/>
<path d="M28.8468 31.7376V36.4743L27.517 37.9609H22.198V27.8828H20.8683V19.0645H24.8575V22.8438C26.3202 22.8438 27.517 23.9775 27.517 25.3633V30.4023L28.8468 31.7376Z" fill="#474F54"/>
<path d="M24.8575 17.8047V16.5449C24.8575 14.4609 23.068 12.7656 20.8683 12.7656C18.6685 12.7656 16.879 14.4609 16.879 16.5449V19.0645C16.879 21.1517 18.665 22.8438 20.8683 22.8438H31.5949C33.7981 22.8438 35.5842 21.1517 35.5842 19.0645V17.8047H24.8575Z" fill="#FF6A4D"/>
<path d="M35.5842 19.0645V17.8047H24.8575V16.5449C24.8575 14.4609 23.068 12.7656 20.8683 12.7656V22.8438H31.5949C33.7981 22.8438 35.5842 21.1517 35.5842 19.0645Z" fill="#E64D2E"/>
<path d="M22.198 6.38281H20.8683H19.5385L16.879 7.64258V8.90234C16.879 10.9863 18.6685 12.7656 20.8683 12.7656C23.068 12.7656 24.8575 10.9863 24.8575 8.90234V7.64258L22.198 6.38281Z" fill="#FFE1BA"/>
<path d="M24.8575 8.90234V7.64258L22.198 6.38281H20.8683V12.7656C23.068 12.7656 24.8575 10.9863 24.8575 8.90234Z" fill="#FFBFAB"/>
<path d="M20.8683 5.12305H16.879V7.64258H20.8683H27.517V5.12305H20.8683Z" fill="#474F54"/>
<path d="M20.8683 5.12305H27.517V7.64258H20.8683V5.12305Z" fill="#32393F"/>
<path d="M39.2488 25.645C39.1021 24.6644 38.8111 22.733 38.2307 18.886L32.9247 16.5449V26.623C32.9247 28.6104 31.1175 30.4023 28.8468 30.4023H27.517V37.9609H30.1765H43.5627L46.2222 36.7012V34.1816C46.2222 30.1514 43.2874 26.6378 39.2488 25.645V25.645Z" fill="#E64D2E"/>
<path d="M40.9032 20.3242H36.9139C34.7142 20.3242 32.9247 18.6289 32.9247 16.5449C32.9247 14.4609 34.7142 12.7656 36.9139 12.7656H40.9032V20.3242Z" fill="#FF6A4D"/>
<path d="M39.9731 30.4407L39.5864 31.8405L37.339 30.7947C34.7744 31.669 32.9247 33.9742 32.9247 36.7012C32.9247 40.1742 35.9075 43 39.5734 43C43.2394 43 46.2222 40.1742 46.2222 36.7012C46.2222 33.3579 43.4498 30.6409 39.9731 30.4407V30.4407Z" fill="#32393F"/>
<path d="M39.5734 32.9219C37.3737 32.9219 35.5842 34.6172 35.5842 36.7012C35.5842 38.7852 37.3737 40.4805 39.5734 40.4805C41.7732 40.4805 43.5627 38.7852 43.5627 36.7012C43.5627 34.6172 41.7732 32.9219 39.5734 32.9219Z" fill="#DFE7F4"/>
<path d="M40.8902 36.5228L39.9731 30.4406C39.8381 30.4329 39.7103 30.4023 39.5734 30.4023C38.786 30.4023 38.0406 30.5555 37.3391 30.7946L38.2567 36.8796L40.8902 36.5228Z" fill="#C7CFE1"/>
</g>
<defs>
<clipPath id="clip0_2_444">
<rect width="45.3889" height="43" fill="white" transform="translate(0.833313)"/>
</clipPath>
</defs>
</svg>
