<svg width="56" height="52" viewBox="0 0 56 52" fill="none" xmlns="http://www.w3.org/2000/svg">
<path d="M27.9648 0.0020752V51.9979C42.9847 51.8472 55.1111 40.2649 55.1111 26C55.1111 11.735 42.9847 0.152739 27.9648 0.0020752V0.0020752Z" fill="#FFBB54"/>
<path d="M27.9647 0.00209256C27.8653 0.00104628 27.7659 0 27.6666 0C12.5097 0 0.222107 11.6409 0.222107 26C0.222107 40.3591 12.5097 52 27.6666 52C27.7659 52 27.8653 51.999 27.9647 51.9979C40.5439 51.8179 50.6934 40.2472 50.6934 26C50.6934 11.7528 40.5439 0.182052 27.9647 0.00209256V0.00209256Z" fill="#FFD45A"/>
<path d="M38.545 22.8821L27.8069 35.8821H38.8388C40.7307 33.5981 41.8582 30.7187 41.8582 27.5903V26.0209C41.8582 24.2946 40.3673 22.8821 38.545 22.8821V22.8821Z" fill="#B74147"/>
<path d="M16.7882 22.8821C14.966 22.8821 13.475 24.2946 13.475 26.0209V27.5903C13.475 30.7187 14.6026 33.5981 16.4944 35.8821L37.1523 34.1746C38.0392 32.2285 38.545 29.9821 38.545 27.5903V26.0212L16.7882 22.8821Z" fill="#FF3C1F"/>
<path d="M37.1524 34.1746L27.8069 41.034C32.2853 40.9932 36.2667 38.9874 38.8388 35.8821C38.3297 35.2679 37.7653 34.6956 37.1524 34.1746Z" fill="#FA4087"/>
<path d="M37.1524 34.1745C35.3102 38.2226 31.8203 40.9711 27.8069 41.0339C27.7605 41.035 27.713 41.035 27.6667 41.035C23.1309 41.035 19.0932 39.0198 16.4945 35.882C19.0932 32.7453 23.1309 30.7291 27.6667 30.7291C31.3134 30.7291 34.6388 32.0328 37.1524 34.1745Z" fill="#FA71A3"/>
<path d="M35.2318 22.8821L33.5752 27.5903H36.8884C37.7995 27.5903 38.545 26.8841 38.545 26.0209V22.8821H35.2318Z" fill="#FFF7DF"/>
<path d="M35.2318 22.8821V26.0209C35.2318 26.8841 34.4863 27.5903 33.5752 27.5903H18.4448C17.5337 27.5903 16.7882 26.8841 16.7882 26.0209V22.8821H35.2318Z" fill="white"/>
<path d="M28.4949 44.9589H26.8383C26.3808 44.9589 26.01 44.6076 26.01 44.1742C26.01 43.7409 26.3808 43.3895 26.8383 43.3895H28.4949C28.9525 43.3895 29.3233 43.7409 29.3233 44.1742C29.3233 44.6076 28.9525 44.9589 28.4949 44.9589Z" fill="#FFBB54"/>
<path d="M36.8884 11.8961C35.9773 11.8961 35.2318 12.6024 35.2318 13.4655V18.1738C35.2318 19.037 35.9773 19.7432 36.8884 19.7432C37.7996 19.7432 38.545 19.037 38.545 18.1738V13.4655C38.545 12.6024 37.7996 11.8961 36.8884 11.8961V11.8961Z" fill="#474867"/>
<path d="M18.4448 11.8971C17.5337 11.8971 16.7882 12.6033 16.7882 13.4665V18.1748C16.7882 19.0379 17.5337 19.7442 18.4448 19.7442C19.3559 19.7442 20.1014 19.0379 20.1014 18.1748V13.4665C20.1014 12.6033 19.3559 11.8971 18.4448 11.8971Z" fill="#474867"/>
</svg>
