<svg width="48" height="45" viewBox="0 0 48 45" fill="none" xmlns="http://www.w3.org/2000/svg">
<path d="M4.27268 6.13601C3.82661 5.26247 4.21236 4.21178 5.13443 3.78928C5.43539 3.65137 5.75591 3.59878 6.06716 3.61897C6.36071 3.00071 6.87609 2.47295 7.57058 2.15465C9.14045 1.43508 11.0288 2.05747 11.7883 3.54471C11.9719 3.90419 12.0721 4.28131 12.0972 4.65658C12.7979 4.63446 13.48 4.99613 13.805 5.63248C14.2448 6.49356 13.8645 7.52924 12.9555 7.94586C12.1301 8.32421 11.1542 8.06024 10.6523 7.36385C10.5469 7.42793 10.4368 7.48727 10.3211 7.54038C9.08003 8.10923 7.64036 7.83876 6.71625 6.96584C5.80103 7.36473 4.71347 6.99893 4.27268 6.13601Z" fill="url(#paint0_linear_2_483)"/>
<path d="M4.73909 2.93673C5.5951 2.93673 6.28903 2.27932 6.28903 1.46837C6.28903 0.65741 5.5951 0 4.73909 0C3.88308 0 3.18915 0.65741 3.18915 1.46837C3.18915 2.27932 3.88308 2.93673 4.73909 2.93673Z" fill="url(#paint1_linear_2_483)"/>
<path d="M13.9468 14.7783H10.2086C9.67957 14.7783 9.25073 14.372 9.25073 13.8708V8.222C9.25073 7.72084 9.67957 7.31458 10.2086 7.31458H13.9468C14.4758 7.31458 14.9046 7.72084 14.9046 8.222V13.8708C14.9047 14.372 14.4759 14.7783 13.9468 14.7783Z" fill="url(#paint2_linear_2_483)"/>
<path d="M12.7625 30.885H1.59952V44.4568H12.7625V30.885Z" fill="url(#paint3_linear_2_483)"/>
<path d="M13.2276 33.7929H1.62456C1.14911 33.7929 0.808767 33.358 0.94674 32.9269L2.09815 29.3338C2.18877 29.051 2.46397 28.8578 2.77596 28.8578H13.2277V33.7929H13.2276Z" fill="url(#paint4_linear_2_483)"/>
<path d="M46.0652 30.885H34.9023V44.4568H46.0652V30.885Z" fill="url(#paint5_linear_2_483)"/>
<path d="M46.0651 40.901L38.5651 33.7955H34.9023V44.4565H46.0651V40.901Z" fill="url(#paint6_linear_2_483)"/>
<path d="M34.4371 33.7929H46.0402C46.5156 33.7929 46.8559 33.358 46.718 32.9269L45.5666 29.3338C45.4759 29.051 45.2007 28.8578 44.8888 28.8578H34.4371V33.7929Z" fill="url(#paint7_linear_2_483)"/>
<path d="M38.5711 16.3768V44.4562H9.09726V16.3768L23.8323 2.69043L38.5711 16.3768Z" fill="url(#paint8_linear_2_483)"/>
<path d="M9.09726 16.3768V17.9855L37.0386 44.4562H38.5711V16.3768L23.8323 2.69043L9.09726 16.3768Z" fill="url(#paint9_linear_2_483)"/>
<path d="M38.5711 24.863V44.4565H29.2659L9.09726 25.3494V24.863H38.5711Z" fill="url(#paint10_linear_2_483)"/>
<path d="M34.017 44.4564H19.6023L11.6785 36.9497C11.3296 36.7354 11.0975 36.3636 11.0975 35.9419V29.9001C11.0975 29.2382 11.6663 28.6993 12.365 28.6993H16.9627C17.4089 28.6993 17.8013 28.9193 18.0275 29.2497L17.993 29.2756L34.017 44.4564Z" fill="url(#paint11_linear_2_483)"/>
<path d="M16.9627 36.4388H12.3653C12.0754 36.4388 11.8404 36.2162 11.8404 35.9415V29.9006C11.8404 29.6259 12.0755 29.4033 12.3653 29.4033H16.9627C17.2527 29.4033 17.4877 29.626 17.4877 29.9006V35.9415C17.4877 36.2162 17.2527 36.4388 16.9627 36.4388Z" fill="#503837"/>
<path d="M16.9627 37.1428H12.3654C11.6662 37.1428 11.0974 36.6039 11.0974 35.9416V29.9007C11.0974 29.2384 11.6662 28.6995 12.3654 28.6995H16.9627C17.6619 28.6995 18.2307 29.2384 18.2307 29.9007V35.9416C18.2308 36.6039 17.662 37.1428 16.9627 37.1428ZM12.5836 35.7348H16.7446V30.1073H12.5836V35.7348Z" fill="white"/>
<path d="M38.5721 31.1914V44.4564H38.1198L30.196 36.9497C29.8461 36.7354 29.6139 36.3636 29.6139 35.9419V29.9001C29.6139 29.2382 30.1828 28.6993 30.8825 28.6993H35.4792C35.9253 28.6993 36.3178 28.9193 36.544 29.2497L36.5622 29.2633L36.55 29.2758L38.5721 31.1914Z" fill="url(#paint12_linear_2_483)"/>
<path d="M35.4796 36.4388H30.8822C30.5923 36.4388 30.3573 36.2162 30.3573 35.9415V29.9006C30.3573 29.6259 30.5923 29.4033 30.8822 29.4033H35.4796C35.7695 29.4033 36.0045 29.626 36.0045 29.9006V35.9415C36.0046 36.2162 35.7695 36.4388 35.4796 36.4388Z" fill="#503837"/>
<path d="M35.4796 37.1428H30.8823C30.1831 37.1428 29.6143 36.6039 29.6143 35.9416V29.9007C29.6143 29.2384 30.1831 28.6995 30.8823 28.6995H35.4796C36.1788 28.6995 36.7476 29.2384 36.7476 29.9007V35.9416C36.7476 36.6039 36.1788 37.1428 35.4796 37.1428ZM31.1003 35.7348H35.2613V30.1073H31.1003V35.7348Z" fill="white"/>
<path d="M20.7631 44.4561V29.2019C20.7631 28.529 21.3388 27.9836 22.0491 27.9836H25.6199C26.3301 27.9836 26.9058 28.529 26.9058 29.2019V44.4561H20.7631Z" fill="#816965"/>
<path d="M27.6663 44.4561H26.1452V29.6173C26.1452 29.1152 25.7115 28.7042 25.1814 28.7042H22.4874C21.9551 28.7042 21.5236 29.113 21.5236 29.6173V44.4561H20.0026V28.6643C20.0026 27.8905 20.6647 27.2632 21.4815 27.2632H26.1872C27.004 27.2632 27.6662 27.8905 27.6662 28.6643V44.4561H27.6663V44.4561Z" fill="#503837"/>
<path d="M22.7449 34.3664C23.1279 34.3664 23.4384 34.0723 23.4384 33.7095C23.4384 33.3466 23.1279 33.0525 22.7449 33.0525C22.3619 33.0525 22.0514 33.3466 22.0514 33.7095C22.0514 34.0723 22.3619 34.3664 22.7449 34.3664Z" fill="white"/>
<path d="M38.5721 40.6117H9.09637V44.4559H38.5721V40.6117Z" fill="#654E48"/>
<path d="M8.77366 42.9539C8.77366 43.4844 8.66775 43.9907 8.47427 44.456H0.410533C0.217057 43.9907 0.111145 43.4844 0.111145 42.9539C0.111145 42.4373 0.211682 41.9434 0.3958 41.4884C1.01839 39.9453 2.59548 38.8506 4.4425 38.8506C6.28951 38.8506 7.86651 39.9453 8.48919 41.4884C8.67322 41.9435 8.77366 42.4374 8.77366 42.9539Z" fill="url(#paint13_linear_2_483)"/>
<path d="M11.5666 43.3665C11.5666 43.7513 11.4898 44.1185 11.3495 44.4561H5.49988C5.35959 44.1186 5.28278 43.7513 5.28278 43.3665C5.28278 42.9917 5.3557 42.6335 5.48932 42.3034C5.94095 41.184 7.08494 40.3899 8.42482 40.3899C9.7647 40.3899 10.9087 41.184 11.3603 42.3034C11.4937 42.6334 11.5666 42.9917 11.5666 43.3665Z" fill="url(#paint14_linear_2_483)"/>
<path d="M47.5536 42.7051C47.5536 43.3235 47.43 43.9137 47.2046 44.4561H37.8047C37.5793 43.9138 37.4557 43.3235 37.4557 42.7051C37.4557 42.1029 37.5729 41.5273 37.7875 40.9968C38.5134 39.198 40.3517 37.9219 42.5046 37.9219C44.6576 37.9219 46.4959 39.198 47.2217 40.9968C47.4363 41.5273 47.5536 42.1029 47.5536 42.7051Z" fill="url(#paint15_linear_2_483)"/>
<path d="M38.5711 20.3937V35.2759L19.6118 17.3136C19.2397 17.1013 18.9895 16.7161 18.9895 16.2755V12.901C18.9895 10.3717 21.1626 8.31396 23.8323 8.31396C25.2779 8.31396 26.5775 8.91853 27.4659 9.87292L38.5711 20.3937Z" fill="url(#paint16_linear_2_483)"/>
<path d="M36.4111 18.9458H11.6355C11.0447 18.9458 10.5642 19.4011 10.5642 19.9608V24.467H11.3083V19.9608C11.3083 19.7898 11.4551 19.6508 11.6355 19.6508H13.1175V24.4669H13.8617V19.6508H16.0725V24.4669H16.8167V19.6508H19.0275V24.4669H19.7716V19.6508H21.9824V24.4669H22.7266V19.6508H24.9375V24.4669H25.6817V19.6508H27.8924V24.4669H28.6366V19.6508H30.8474V24.4669H31.5916V19.6508H33.8024V24.4669H34.5465V19.6508H36.4107C36.5911 19.6508 36.7379 19.7898 36.7379 19.9608V24.467H37.482V19.9608C37.4824 19.4011 37.0018 18.9458 36.4111 18.9458Z" fill="#654E48"/>
<path d="M39.182 23.7355V25.9959C39.182 26.3318 38.8946 26.6042 38.54 26.6042H9.12468C8.77007 26.6042 8.48264 26.3318 8.48264 25.9959V23.7355C8.48264 23.3995 8.77007 23.1272 9.12468 23.1272H38.54C38.8946 23.1272 39.182 23.3995 39.182 23.7355Z" fill="url(#paint17_linear_2_483)"/>
<path d="M43.8481 18.8248L24.817 0.789347C24.2745 0.275458 23.395 0.275458 22.8525 0.789347L3.81661 18.8233C3.46172 19.1595 3.46172 19.7046 3.81661 20.0408L4.62786 20.8093C4.98275 21.1455 5.55809 21.1455 5.91298 20.8093L23.576 4.0759C23.7188 3.94062 23.9504 3.94062 24.0932 4.0759L41.7516 20.8107C42.1065 21.1469 42.6818 21.1469 43.0367 20.8107L43.848 20.0422C44.203 19.7061 44.203 19.161 43.8481 18.8248Z" fill="url(#paint18_linear_2_483)"/>
<path d="M24.817 0.789303C24.5457 0.532359 24.1903 0.403931 23.8347 0.403931V3.97455C23.9283 3.97455 24.0219 4.00844 24.0934 4.07603L41.7517 20.8109C42.1066 21.1471 42.6819 21.1471 43.0368 20.8109L43.8481 20.0423C44.203 19.7061 44.203 19.161 43.8481 18.8248L24.817 0.789303Z" fill="url(#paint19_linear_2_483)"/>
<path d="M27.3936 16.7568H20.2712C19.9903 16.7568 19.7628 16.5411 19.7628 16.2752V12.9013C19.7628 10.772 21.5848 9.04578 23.8325 9.04578C26.0802 9.04578 27.9023 10.772 27.9023 12.9013V16.2752C27.9021 16.5411 27.6743 16.7568 27.3936 16.7568Z" fill="#654E48"/>
<path d="M23.8324 8.31372C21.1623 8.31372 18.99 10.3717 18.99 12.9012V16.275C18.99 16.9443 19.5647 17.4887 20.2712 17.4887H27.3936C28.1002 17.4887 28.6749 16.9443 28.6749 16.275V12.9012C28.6748 10.3716 26.5026 8.31372 23.8324 8.31372ZM27.1027 12.5109H24.6052V9.86531C25.9212 10.1661 26.9314 11.2163 27.1027 12.5109ZM23.0596 9.86531V12.5109H20.5621C20.7333 11.2163 21.7435 10.1661 23.0596 9.86531ZM20.5354 13.975H23.0596V16.0248H20.5354V13.975V13.975ZM24.6052 16.0248V13.975H27.1294V16.0248H24.6052Z" fill="white"/>
<defs>
<linearGradient id="paint0_linear_2_483" x1="2.48032" y1="2.82017" x2="20.5101" y2="9.44121" gradientUnits="userSpaceOnUse">
<stop stop-color="#E2EDF2"/>
<stop offset="1" stop-color="#9FC7E2"/>
</linearGradient>
<linearGradient id="paint1_linear_2_483" x1="4.23631" y1="1.30358" x2="6.89098" y2="2.27876" gradientUnits="userSpaceOnUse">
<stop stop-color="#E2EDF2"/>
<stop offset="1" stop-color="#9FC7E2"/>
</linearGradient>
<linearGradient id="paint2_linear_2_483" x1="10.5631" y1="9.61321" x2="12.3372" y2="11.4849" gradientUnits="userSpaceOnUse">
<stop stop-color="#816965"/>
<stop offset="1" stop-color="#654E48"/>
</linearGradient>
<linearGradient id="paint3_linear_2_483" x1="7.18082" y1="32.6047" x2="7.18082" y2="44.6569" gradientUnits="userSpaceOnUse">
<stop stop-color="#FFE7A5"/>
<stop offset="0.966" stop-color="#FFBF5C"/>
</linearGradient>
<linearGradient id="paint4_linear_2_483" x1="7.07152" y1="29.4831" x2="7.07152" y2="33.8665" gradientUnits="userSpaceOnUse">
<stop stop-color="#FF5D00"/>
<stop offset="1" stop-color="#D54003"/>
</linearGradient>
<linearGradient id="paint5_linear_2_483" x1="40.4828" y1="32.6047" x2="40.4828" y2="44.6569" gradientUnits="userSpaceOnUse">
<stop stop-color="#FFE7A5"/>
<stop offset="0.966" stop-color="#FFBF5C"/>
</linearGradient>
<linearGradient id="paint6_linear_2_483" x1="40.2223" y1="42.0721" x2="29.208" y2="31.7114" gradientUnits="userSpaceOnUse">
<stop stop-color="#FF5D00" stop-opacity="0"/>
<stop offset="1" stop-color="#D54003"/>
</linearGradient>
<linearGradient id="paint7_linear_2_483" x1="40.5922" y1="29.4831" x2="40.5922" y2="33.8665" gradientUnits="userSpaceOnUse">
<stop stop-color="#FF5D00"/>
<stop offset="1" stop-color="#D54003"/>
</linearGradient>
<linearGradient id="paint8_linear_2_483" x1="23.8337" y1="23.8633" x2="23.8337" y2="53.4288" gradientUnits="userSpaceOnUse">
<stop stop-color="#FFE7A5"/>
<stop offset="0.966" stop-color="#FFBF5C"/>
<stop offset="1" stop-color="#DB9E36"/>
</linearGradient>
<linearGradient id="paint9_linear_2_483" x1="20.6485" y1="14.1642" x2="12.5773" y2="5.6446" gradientUnits="userSpaceOnUse">
<stop stop-color="#FF5D00" stop-opacity="0"/>
<stop offset="1" stop-color="#D54003"/>
</linearGradient>
<linearGradient id="paint10_linear_2_483" x1="24.9432" y1="31.6309" x2="21.939" y2="11.9479" gradientUnits="userSpaceOnUse">
<stop stop-color="#FF5D00" stop-opacity="0"/>
<stop offset="1" stop-color="#D54003"/>
</linearGradient>
<linearGradient id="paint11_linear_2_483" x1="20.4059" y1="38.361" x2="7.82745" y2="25.0837" gradientUnits="userSpaceOnUse">
<stop stop-color="#FF5D00" stop-opacity="0"/>
<stop offset="1" stop-color="#D54003"/>
</linearGradient>
<linearGradient id="paint12_linear_2_483" x1="36.738" y1="36.2916" x2="28.6844" y2="27.7906" gradientUnits="userSpaceOnUse">
<stop stop-color="#FF5D00" stop-opacity="0"/>
<stop offset="1" stop-color="#D54003"/>
</linearGradient>
<linearGradient id="paint13_linear_2_483" x1="1.99975" y1="40.3995" x2="7.05579" y2="45.7358" gradientUnits="userSpaceOnUse">
<stop stop-color="#9EB644"/>
<stop offset="1" stop-color="#738611"/>
</linearGradient>
<linearGradient id="paint14_linear_2_483" x1="6.65256" y1="41.5131" x2="10.3203" y2="45.3847" gradientUnits="userSpaceOnUse">
<stop stop-color="#9EB644"/>
<stop offset="1" stop-color="#738611"/>
</linearGradient>
<linearGradient id="paint15_linear_2_483" x1="39.6567" y1="39.7271" x2="45.5498" y2="45.9486" gradientUnits="userSpaceOnUse">
<stop stop-color="#9EB644"/>
<stop offset="1" stop-color="#738611"/>
</linearGradient>
<linearGradient id="paint16_linear_2_483" x1="30.6038" y1="20.3066" x2="17.7095" y2="6.69593" gradientUnits="userSpaceOnUse">
<stop stop-color="#FF5D00" stop-opacity="0"/>
<stop offset="1" stop-color="#D54003"/>
</linearGradient>
<linearGradient id="paint17_linear_2_483" x1="23.8318" y1="23.4976" x2="23.8318" y2="28.1102" gradientUnits="userSpaceOnUse">
<stop stop-color="#FF5D00"/>
<stop offset="1" stop-color="#D54003"/>
</linearGradient>
<linearGradient id="paint18_linear_2_483" x1="23.8318" y1="12.6034" x2="23.8318" y2="28.2626" gradientUnits="userSpaceOnUse">
<stop stop-color="#FF5D00"/>
<stop offset="1" stop-color="#D54003"/>
</linearGradient>
<linearGradient id="paint19_linear_2_483" x1="38.0486" y1="15.3836" x2="28.5976" y2="5.40777" gradientUnits="userSpaceOnUse">
<stop stop-color="#FF5D00" stop-opacity="0"/>
<stop offset="1" stop-color="#D54003"/>
</linearGradient>
</defs>
</svg>
